<?xml version="1.0" encoding="utf-8"?>
<!-- Generator: Adobe Illustrator 27.5.0, SVG Export Plug-In . SVG Version: 6.00 Build 0)  -->
<svg version="1.1" id="Layer_1" xmlns="http://www.w3.org/2000/svg" xmlns:xlink="http://www.w3.org/1999/xlink" x="0px" y="0px"
	 viewBox="0 0 2987.417 2000" style="enable-background:new 0 0 2987.417 2000;" xml:space="preserve">
<rect x="0" style="fill:#FFFFFF;" width="2987.417" height="2000"/>
<g>
	<g>
		<path style="fill:#E2F2F1;" d="M2652.608,1845.907c308.075-430.658,192.04-1078.897-58.579-1270.435
			c-297.033-227.011-528.392-99.141-865.792-99.533c-362.755-0.422-282.888-305.507-708.572-272.504
			c-494.141,38.311-753.626,435.749-796.269,870.926c-43.001,438.829,122.215,702.801,180.309,771.547H2652.608z"/>
	</g>
	<g>
		<g>
			<g>
				<g>
					<g>
						<rect x="1434.275" y="1350.97" style="fill:#230C1E;" width="228.93" height="479.62"/>
					</g>
				</g>
			</g>
			<g>
				<g>
					<g>
						<path style="fill:#230C1E;" d="M2238.186,1525.292V868.271c0-31.218-25.307-56.525-56.524-56.525H907.755
							c-31.218,0-56.525,25.307-56.525,56.525v657.021H2238.186z"/>
					</g>
				</g>
			</g>
			<g>
				<g>
					<g>
						<path style="fill:#5B2750;" d="M851.231,1525.292v105.286c0,21.9,14.476,39.653,32.332,39.653h1322.29
							c17.857,0,32.333-17.753,32.333-39.653v-105.286H851.231z"/>
					</g>
				</g>
			</g>
			<g>
				<g>
					<g>
						<path style="fill:#DCF4FF;" d="M2205.72,1496.761V870.025c0-16.429-13.798-29.747-30.819-29.747H914.516
							c-17.021,0-30.819,13.318-30.819,29.747v626.735H2205.72z"/>
					</g>
				</g>
			</g>
			<g>
				<g>
					<g>
						<path style="fill:#5B2750;" d="M1858.406,1844.275c3.886-22.668-11.339-41.043-34.006-41.043h-550.928
							c-22.667,0-44.194,18.376-48.08,41.043v0L1858.406,1844.275z"/>
					</g>
				</g>
			</g>
			<g>
				<g>
					<g>
						<path style="fill:#21111D;" d="M2205.854,1671.888H883.564c-18.742,0-33.989-18.531-33.989-41.309V868.271
							c0-32.081,26.099-58.181,58.181-58.181v3.314c-30.253,0-54.867,24.614-54.867,54.868v762.308
							c0,20.951,13.761,37.995,30.675,37.995h1322.29V1671.888z"/>
					</g>
				</g>
			</g>
			<g>
				<g>
					<g>
						
							<rect x="1997.603" y="1578.727" transform="matrix(0.583 -0.8125 0.8125 0.583 -439.7462 2303.9614)" style="fill:#21111D;" width="54.112" height="3.314"/>
					</g>
				</g>
			</g>
			<g>
				<g>
					<g>
						
							<rect x="1998.087" y="1600.101" transform="matrix(0.5937 -0.8047 0.8047 0.5937 -466.3062 2279.9641)" style="fill:#21111D;" width="53.143" height="3.314"/>
					</g>
				</g>
			</g>
			<g>
				<g>
					<g>
						
							<rect x="1481.319" y="1692.592" transform="matrix(0.4962 -0.8682 0.8682 0.4962 -716.6796 2153.4866)" style="fill:#21111D;" width="31.655" height="3.313"/>
					</g>
				</g>
			</g>
			<g>
				<g>
					<g>
						
							<rect x="1484.995" y="1710.017" transform="matrix(0.506 -0.8625 0.8625 0.506 -735.8564 2138.5249)" style="fill:#21111D;" width="28.067" height="3.313"/>
					</g>
				</g>
			</g>
			<g>
				<g>
					<g>
						<path style="fill:#21111D;" d="M2207.376,1498.417H883.696v-3.314h1320.366V870.025c0-15.489-13.082-28.09-29.161-28.09
							v-3.314c17.907,0,32.474,14.088,32.474,31.403V1498.417z"/>
					</g>
				</g>
			</g>
		</g>
		<g>
			<g style="opacity:0.6;">
				<rect x="1283.445" y="1071.415" style="fill:#9BC1F9;" width="56.545" height="377.606"/>
			</g>
			<g style="opacity:0.6;">
				<rect x="1204.477" y="1144.848" style="fill:#9BC1F9;" width="56.545" height="304.173"/>
			</g>
			<g style="opacity:0.6;">
				<rect x="1353.97" y="1106.173" style="fill:#9BC1F9;" width="56.545" height="342.848"/>
			</g>
			<g style="opacity:0.6;">
				<rect x="1125.509" y="1092.69" style="fill:#9BC1F9;" width="56.545" height="356.331"/>
			</g>
			<g style="opacity:0.6;">
				<rect x="1046.541" y="1198.341" style="fill:#9BC1F9;" width="56.545" height="250.68"/>
			</g>
			<g>
				<g style="opacity:0.3;">
					<rect x="1283.445" y="1112.219" style="fill:#9BC1F9;" width="56.545" height="336.802"/>
				</g>
				<g style="opacity:0.3;">
					<rect x="1204.477" y="1214.951" style="fill:#9BC1F9;" width="56.545" height="234.07"/>
				</g>
				<g style="opacity:0.3;">
					<rect x="1353.97" y="1185.19" style="fill:#9BC1F9;" width="56.545" height="263.831"/>
				</g>
				<g style="opacity:0.3;">
					<rect x="1125.509" y="1174.814" style="fill:#9BC1F9;" width="56.545" height="274.207"/>
				</g>
				<g style="opacity:0.3;">
					<rect x="1046.541" y="1256.115" style="fill:#9BC1F9;" width="56.545" height="192.906"/>
				</g>
			</g>
			<g>
				<polygon style="fill:#5183BF;" points="1447.578,1014.696 1402.521,1048.773 1419.708,1049.869 1312.152,1239.167 
					1252.599,1149.882 1168.354,1346.387 1114.166,1269.421 1029.369,1389.288 1040.147,1397.074 1114.137,1292.989 
					1171.417,1374.346 1255.353,1178.563 1313.134,1265.192 1432.212,1055.617 1443.267,1067.506 				"/>
			</g>
		</g>
		<g>
			<g>
				<g>
					<g>
						<g>
							<rect x="1552.963" y="920.386" style="fill:#DCF4FF;" width="590.966" height="496.042"/>
						</g>
					</g>
				</g>
			</g>
			<g>
				<g>
					<g>
						<g>
							<g>
								
									<rect x="1577.412" y="947.46" transform="matrix(-1 -1.224647e-16 1.224647e-16 -1 3622.9175 1918.3802)" style="fill:#D4EEF4;" width="468.093" height="23.461"/>
							</g>
						</g>
					</g>
				</g>
				<g>
					<g>
						<g>
							<g>
								
									<rect x="1577.412" y="1071.542" transform="matrix(-1 -1.224647e-16 1.224647e-16 -1 3695.5923 2461.4141)" style="fill:#EBFAFC;" width="540.768" height="318.329"/>
							</g>
						</g>
					</g>
				</g>
				<g>
					<g>
						<g>
							<g>
								
									<ellipse transform="matrix(0.3827 -0.9239 0.9239 0.3827 391.7392 2504.6592)" style="fill:#D4EEF4;" cx="2070.112" cy="959.19" rx="11.731" ry="11.731"/>
							</g>
						</g>
					</g>
				</g>
				<g>
					<g>
						<g>
							<g>
								
									<ellipse transform="matrix(0.3827 -0.9239 0.9239 0.3827 414.171 2538.2305)" style="fill:#D4EEF4;" cx="2106.45" cy="959.19" rx="11.731" ry="11.731"/>
							</g>
						</g>
					</g>
				</g>
				<g>
					<g>
						<g>
							<g>
								<rect x="1679.309" y="1011.347" style="fill:#D4EEF4;" width="422.348" height="8.06"/>
							</g>
						</g>
					</g>
				</g>
				<g>
					<g>
						<g>
							<g>
								<rect x="1679.309" y="1037.379" style="fill:#D4EEF4;" width="422.348" height="8.06"/>
							</g>
						</g>
					</g>
				</g>
				<g>
					<g>
						<g>
							<g>
								<path style="fill:#D4EEF4;" d="M1930.448,1099.669h-333.715c-2.058,0-3.726-1.668-3.726-3.726l0,0
									c0-2.058,1.668-3.726,3.726-3.726h333.715c2.058,0,3.726,1.668,3.726,3.726l0,0
									C1934.174,1098,1932.506,1099.669,1930.448,1099.669z"/>
							</g>
						</g>
					</g>
				</g>
				<g>
					<g>
						<g>
							<g>
								<path style="fill:#D4EEF4;" d="M1930.448,1122.307h-333.715c-2.058,0-3.726-1.668-3.726-3.726l0,0
									c0-2.058,1.668-3.726,3.726-3.726h333.715c2.058,0,3.726,1.668,3.726,3.726l0,0
									C1934.174,1120.639,1932.506,1122.307,1930.448,1122.307z"/>
							</g>
						</g>
					</g>
				</g>
				<g>
					<g>
						<g>
							<g>
								<path style="fill:#D4EEF4;" d="M1930.448,1144.946h-333.715c-2.058,0-3.726-1.668-3.726-3.726l0,0
									c0-2.058,1.668-3.726,3.726-3.726h333.715c2.058,0,3.726,1.668,3.726,3.726l0,0
									C1934.174,1143.278,1932.506,1144.946,1930.448,1144.946z"/>
							</g>
						</g>
					</g>
				</g>
				<g>
					<g>
						<g>
							<g>
								<path style="fill:#D4EEF4;" d="M1930.448,1190.223h-333.715c-2.058,0-3.726-1.668-3.726-3.726l0,0
									c0-2.058,1.668-3.726,3.726-3.726h333.715c2.058,0,3.726,1.668,3.726,3.726l0,0
									C1934.174,1188.555,1932.506,1190.223,1930.448,1190.223z"/>
							</g>
						</g>
					</g>
				</g>
				<g>
					<g>
						<g>
							<g>
								<path style="fill:#D4EEF4;" d="M1930.448,1212.862h-333.715c-2.058,0-3.726-1.668-3.726-3.726l0,0
									c0-2.058,1.668-3.726,3.726-3.726h333.715c2.058,0,3.726,1.668,3.726,3.726l0,0
									C1934.174,1211.193,1932.506,1212.862,1930.448,1212.862z"/>
							</g>
						</g>
					</g>
				</g>
				<g>
					<g>
						<g>
							<g>
								<path style="fill:#D4EEF4;" d="M1930.448,1235.5h-333.715c-2.058,0-3.726-1.668-3.726-3.726l0,0
									c0-2.058,1.668-3.726,3.726-3.726h333.715c2.058,0,3.726,1.668,3.726,3.726l0,0
									C1934.174,1233.832,1932.506,1235.5,1930.448,1235.5z"/>
							</g>
						</g>
					</g>
				</g>
				<g>
					<g>
						<g>
							<g>
								<path style="fill:#D4EEF4;" d="M1930.448,1280.777h-333.715c-2.058,0-3.726-1.668-3.726-3.726l0,0
									c0-2.058,1.668-3.726,3.726-3.726h333.715c2.058,0,3.726,1.668,3.726,3.726l0,0
									C1934.174,1279.109,1932.506,1280.777,1930.448,1280.777z"/>
							</g>
						</g>
					</g>
				</g>
				<g>
					<g>
						<g>
							<g>
								<path style="fill:#D4EEF4;" d="M1930.448,1303.416h-333.715c-2.058,0-3.726-1.668-3.726-3.726l0,0
									c0-2.058,1.668-3.726,3.726-3.726h333.715c2.058,0,3.726,1.668,3.726,3.726l0,0
									C1934.174,1301.748,1932.506,1303.416,1930.448,1303.416z"/>
							</g>
						</g>
					</g>
				</g>
				<g>
					<g>
						<g>
							<g>
								
									<rect x="1955.77" y="1092.217" transform="matrix(-1 -1.224647e-16 1.224647e-16 -1 4053.6733 2311.9187)" style="fill:#D4EEF4;" width="142.134" height="127.486"/>
							</g>
						</g>
					</g>
				</g>
				<g>
					<g>
						<g>
							<g>
								
									<rect x="1955.77" y="1253.149" transform="matrix(-1 -1.224647e-16 1.224647e-16 -1 4053.6733 2556.5654)" style="fill:#D4EEF4;" width="142.134" height="50.267"/>
							</g>
						</g>
					</g>
				</g>
				<g>
					<g>
						<g>
							<g>
								<polygon style="fill:#D4EEF4;" points="2087.955,1190.223 2063.775,1150.249 2028.042,1165.489 2004.13,1114.855 
									1968.128,1190.223 								"/>
							</g>
						</g>
					</g>
				</g>
				<g>
					<g>
						<g>
							<g>
								
									<ellipse transform="matrix(0.9732 -0.2298 0.2298 0.9732 -204.1211 500.0966)" style="fill:#D4EEF4;" cx="2045.505" cy="1126.606" rx="10.887" ry="10.887"/>
							</g>
						</g>
					</g>
				</g>
			</g>
			<g style="opacity:0.6;">
				<g>
					<path style="fill:#2595AF;" d="M1553.238,904.807v15.876h590.998v-15.876c0-8.767-7.108-15.875-15.875-15.875h-559.247
						C1560.345,888.931,1553.238,896.039,1553.238,904.807z"/>
				</g>
			</g>
			<g>
				<g style="opacity:0.6;">
					<path style="fill:#2595AF;" d="M2143.929,1429.417v-15.875h-590.966v15.875c0,8.767,7.107,15.875,15.875,15.875h559.217
						C2136.822,1445.292,2143.929,1438.184,2143.929,1429.417z"/>
				</g>
			</g>
			<g>
				<g>
					<path style="fill:#D4EEF4;" d="M2120.423,904.807c0,3.188,2.584,5.773,5.773,5.773s5.773-2.585,5.773-5.773
						c0-3.188-2.585-5.773-5.773-5.773S2120.423,901.618,2120.423,904.807z"/>
				</g>
			</g>
			<g>
				<g>
					<g>
						<path style="fill:#D4EEF4;" d="M2098.774,904.807c0,3.188,2.585,5.773,5.773,5.773s5.773-2.585,5.773-5.773
							c0-3.188-2.584-5.773-5.773-5.773S2098.774,901.618,2098.774,904.807z"/>
					</g>
				</g>
				<g>
					<g>
						<circle style="fill:#D4EEF4;" cx="2082.899" cy="904.807" r="5.773"/>
					</g>
				</g>
			</g>
		</g>
		<g>
			<g>
				<g>
					<g>
						<polygon style="fill:#FFFFFF;" points="1833.666,702.392 1833.666,1167.651 1487.176,1167.651 1487.176,778.954 
							1561.774,702.392 						"/>
					</g>
				</g>
			</g>
			<g>
				<g>
					<g>
						<polygon style="fill:#3AA1C9;" points="1487.176,779.099 1561.338,702.392 1561.338,779.099 						"/>
					</g>
				</g>
			</g>
			<g>
				<g>
					<g>
						<path style="fill:#3AA1C9;" d="M1595.147,760.304h151.16c2.168,0,3.926-1.758,3.926-3.926l0,0
							c0-2.168-1.758-3.926-3.926-3.926h-151.16c-2.168,0-3.926,1.758-3.926,3.926l0,0
							C1591.221,758.546,1592.979,760.304,1595.147,760.304z"/>
					</g>
				</g>
			</g>
			<g>
				<g>
					<g>
						<path style="fill:#3AA1C9;" d="M1574.535,790.732h192.385c2.168,0,3.926-1.758,3.926-3.926l0,0
							c0-2.168-1.758-3.926-3.926-3.926h-192.385c-2.168,0-3.926,1.758-3.926,3.926l0,0
							C1570.608,788.975,1572.366,790.732,1574.535,790.732z"/>
					</g>
				</g>
			</g>
			<g>
				<g>
					<g>
						<path style="fill:#3AA1C9;" d="M1523.494,863.368h278.763c2.168,0,3.926-1.758,3.926-3.926l0,0
							c0-2.168-1.758-3.926-3.926-3.926h-278.763c-2.168,0-3.926,1.758-3.926,3.926l0,0
							C1519.567,861.61,1521.325,863.368,1523.494,863.368z"/>
					</g>
				</g>
			</g>
			<g>
				<g>
					<g>
						<path style="fill:#3AA1C9;" d="M1523.494,897.722h278.763c2.168,0,3.926-1.758,3.926-3.926l0,0
							c0-2.169-1.758-3.926-3.926-3.926h-278.763c-2.168,0-3.926,1.758-3.926,3.926l0,0
							C1519.567,895.965,1521.325,897.722,1523.494,897.722z"/>
					</g>
				</g>
			</g>
			<g>
				<g>
					<g>
						<path style="fill:#3AA1C9;" d="M1523.494,932.077h278.763c2.168,0,3.926-1.758,3.926-3.926l0,0
							c0-2.168-1.758-3.926-3.926-3.926h-278.763c-2.168,0-3.926,1.758-3.926,3.926l0,0
							C1519.567,930.319,1521.325,932.077,1523.494,932.077z"/>
					</g>
				</g>
			</g>
			<g>
				<g>
					<g>
						<path style="fill:#3AA1C9;" d="M1523.494,971.265h278.763c2.168,0,3.926-1.758,3.926-3.926l0,0
							c0-2.169-1.758-3.926-3.926-3.926h-278.763c-2.168,0-3.926,1.758-3.926,3.926l0,0
							C1519.567,969.507,1521.325,971.265,1523.494,971.265z"/>
					</g>
				</g>
			</g>
			<g>
				<g>
					<g>
						<path style="fill:#3AA1C9;" d="M1523.494,1005.62h278.763c2.168,0,3.926-1.758,3.926-3.926l0,0
							c0-2.169-1.758-3.926-3.926-3.926h-278.763c-2.168,0-3.926,1.758-3.926,3.926l0,0
							C1519.567,1003.862,1521.325,1005.62,1523.494,1005.62z"/>
					</g>
				</g>
			</g>
			<g>
				<g>
					<g>
						<path style="fill:#3AA1C9;" d="M1523.494,1123.481h278.763c2.168,0,3.926-1.758,3.926-3.926l0,0
							c0-2.168-1.758-3.926-3.926-3.926h-278.763c-2.168,0-3.926,1.758-3.926,3.926l0,0
							C1519.567,1121.723,1521.325,1123.481,1523.494,1123.481z"/>
					</g>
				</g>
			</g>
			<g>
				<g>
					<g>
						<path style="fill:#3AA1C9;" d="M1523.494,1095.436h278.763c2.168,0,3.926-1.758,3.926-3.926l0,0
							c0-2.168-1.758-3.926-3.926-3.926h-278.763c-2.168,0-3.926,1.758-3.926,3.926l0,0
							C1519.567,1093.678,1521.325,1095.436,1523.494,1095.436z"/>
					</g>
				</g>
			</g>
		</g>
	</g>
	<rect x="261.647" y="1843.613" style="fill:#223749;" width="2499.402" height="7.744"/>
	<g>
		<g>
			<g>
				<g>
					<g>
						<g>
							<g>
								<g>
									<g>
										<polygon style="fill:#FE9F73;" points="1120.236,1789.782 1058.314,1810.9 1051.414,1797.215 1028.642,1748.244 
											1093.215,1727.827 										"/>
									</g>
								</g>
							</g>
						</g>
					</g>
				</g>
			</g>
			<g>
				<g>
					<path style="fill:#FFFFFF;" d="M1056.867,1815.145l54.274-17.977l14.066-31.258l48.187,10.639l8.668-2.871
						c2.987-0.99,6.395,0.124,7.929,2.871c2.065,3.697,0.203,8.144-3.608,9.406l-126.198,41.8c-0.927,0.307-1.928-0.195-2.235-1.123
						l-2.723-8.221C1054.778,1817.056,1055.512,1815.594,1056.867,1815.145z"/>
				</g>
				<g>
					<path style="fill:#E33A44;" d="M1057.37,1815.056l-7.379-22.279c0,0,5.065-15.331,21.063-13.661
						c0,0,25.996,7.961,38.567-16.257l52.851,5.177c0,0,14.034,0.038,19.699,5.682L1057.37,1815.056z"/>
				</g>
				<g>
					<g>
						<g>
							
								<rect x="1053.175" y="1792.184" transform="matrix(0.9493 -0.3143 0.3143 0.9493 -513.5809 422.6052)" width="0.973" height="23.353"/>
						</g>
					</g>
				</g>
				<g>
					<g>
						<g>
							<path d="M1091.994,1779.133c1.764-0.584,2.777-1.087,2.809-1.104l-0.439-0.868c-0.103,0.05-10.475,5.178-23.176,1.487
								l-0.271,0.935C1080.017,1782.228,1087.964,1780.468,1091.994,1779.133z"/>
						</g>
					</g>
				</g>
				<g>
					<g>
						<g>
							
								<rect x="1063.251" y="1801.962" transform="matrix(0.2691 -0.9631 0.9631 0.2691 -961.6305 2344.1965)" width="0.974" height="7.479"/>
						</g>
					</g>
				</g>
				<g>
					<g>
						<g>
							
								<rect x="1067.101" y="1799.441" transform="matrix(0.2702 -0.9628 0.9628 0.2702 -956.9581 2343.938)" width="0.972" height="7.478"/>
						</g>
					</g>
				</g>
				<g>
					<g>
						<g>
							<g>
								<g>
									<g>
										<g>
											<g>
												<g>
													<path d="M1190.322,1783.46c1.072-1.757,1.315-3.886,0.668-5.839c-1.212-3.66-5.177-5.652-8.838-4.44l-124.781,41.33
														c-1.963,0.65-3.03,2.775-2.38,4.738l2.04,6.159l0.924-0.306l-2.04-6.159c-0.481-1.454,0.309-3.027,1.762-3.508
														l124.781-41.33c3.151-1.044,6.564,0.67,7.608,3.822c0.557,1.681,0.348,3.513-0.575,5.027L1190.322,1783.46z"/>
												</g>
											</g>
										</g>
									</g>
								</g>
							</g>
						</g>
					</g>
				</g>
				<g>
					<g>
						<g>
							<path d="M1181.953,1773.979l0.705-0.671c-0.176-0.185-4.419-4.528-15.184-5.426c-10.578-0.883-57.335-5.461-57.806-5.508
								l-0.096,0.969c0.472,0.046,47.236,4.625,57.821,5.509C1177.751,1769.717,1181.912,1773.936,1181.953,1773.979z"/>
						</g>
					</g>
				</g>
			</g>
			<g>
				<g>
					<path style="fill:#43A2BF;" d="M660.991,1452.831c0,0-24.014,85.244,30.585,103.923c54.599,18.679,241.349,4.193,241.349,4.193
						l83.122,211.593c0,0,57.097-7.713,83.678-43.045c0,0-74.583-245.895-106.912-260.981s-174.211-30.276-174.211-30.276
						L660.991,1452.831z"/>
				</g>
			</g>
			<g>
				<g>
					<path d="M1015.04,1773.55l-0.205-0.521l-53.492-135.916l1.302-0.512l53.284,135.389c6.007-1.036,59.186-11.018,82.673-42.679
						l1.124,0.834c-25.132,33.877-83.546,43.229-84.133,43.319L1015.04,1773.55z"/>
				</g>
			</g>
			<g>
				<path style="fill:#F49069;" d="M763.324,1312.539l8.822,97.911l-36.752,12.138c0,0-33.432-74.761-33.595-76.23
					c-0.163-1.469,22.108-41.599,25.673-42.104C731.036,1303.749,763.324,1312.539,763.324,1312.539z"/>
			</g>
			<g>
				<g>
					<g>
						<rect x="710.481" y="1433.528" style="fill:#695564;" width="3.547" height="407.478"/>
						
							<rect x="710.481" y="1433.528" transform="matrix(6.123234e-17 -1 1 6.123234e-17 -925.0132 2349.5217)" style="fill:#695564;" width="3.547" height="407.478"/>
						
							<rect x="710.481" y="1433.528" transform="matrix(0.7071 -0.7071 0.7071 0.7071 -949.1215 983.2175)" style="fill:#695564;" width="3.547" height="407.479"/>
						
							<rect x="710.481" y="1433.528" transform="matrix(-0.7071 -0.7071 0.7071 -0.7071 58.1381 3298.6172)" style="fill:#695564;" width="3.547" height="407.479"/>
					</g>
					<path style="fill:#695564;" d="M712.254,1428.553c-115.27,0-208.715,93.445-208.715,208.714s93.444,208.714,208.715,208.714
						c115.27,0,208.714-93.445,208.714-208.714S827.524,1428.553,712.254,1428.553z M712.254,1825.88
						c-104.168,0-188.613-84.445-188.613-188.613c0-104.168,84.445-188.613,188.613-188.613
						c104.168,0,188.612,84.445,188.612,188.613C900.867,1741.435,816.422,1825.88,712.254,1825.88z"/>
					
						<ellipse transform="matrix(0.9239 -0.3827 0.3827 0.9239 -572.3378 397.1973)" style="fill:#695564;" cx="712.254" cy="1637.267" rx="42.861" ry="42.861"/>
				</g>
				<g>
					<g>
						<g>
							<g>
								<g>
									<path style="fill:#FEC786;" d="M463.595,1288.841h107.723c13.669,0,25.527,9.443,28.587,22.765l64.114,279.13
										l-150.209-15.659L463.595,1288.841z"/>
								</g>
							</g>
						</g>
					</g>
				</g>
				<polygon style="fill:#695564;" points="940.244,1827.844 930.233,1827.844 798.968,1573.682 808.979,1573.682 				"/>
				<rect x="830.607" y="1547.535" style="fill:#FEC786;" width="54.62" height="48.333"/>
				<g>
					<g>
						<g>
							<g>
								<g>
									<path style="fill:#F99247;" d="M829.219,1559.983c0,0-237.636,0.001-289.045,0.002c-8.296,0-15.409-5.921-16.916-14.079
										l-45.708-247.462c-1.228-6.648-7.726-10.993-14.383-9.517c-6.341,1.406-10.303,7.763-9.123,14.151l53.169,276.742
										c0.401,2.173,1.375,4.091,2.724,5.65c3.332,6.19,9.87,10.398,17.392,10.398h303.278c10.902,0,18.352-5.242,18.352-16.145
										l0,0C848.959,1568.821,840.121,1559.983,829.219,1559.983z"/>
								</g>
							</g>
						</g>
					</g>
				</g>
				<g>
					<g>
						<g>
							<g>
								<g>
									<path style="fill:#21111D;" d="M540.174,1561.656c-8.759,0-16.271-6.252-17.862-14.867l-45.708-247.462
										c-0.548-2.967-2.235-5.518-4.751-7.184c-2.514-1.665-5.524-2.223-8.477-1.567c-0.518,0.115-1.033-0.212-1.148-0.732
										c-0.115-0.519,0.212-1.033,0.731-1.148c3.468-0.769,7.003-0.113,9.957,1.843c2.955,1.957,4.937,4.954,5.581,8.439
										l45.708,247.462c1.423,7.701,8.138,13.291,15.969,13.291c0.532,0,0.963,0.431,0.963,0.963
										C541.137,1561.225,540.706,1561.656,540.174,1561.656z"/>
								</g>
							</g>
						</g>
					</g>
				</g>
			</g>
			<g>
				<g>
					<g>
						<g>
							<g>
								<g>
									<g>
										<polygon style="fill:#FE9F73;" points="1049.203,1789.782 987.281,1810.9 980.381,1797.215 957.609,1748.244 
											1022.182,1727.827 										"/>
									</g>
								</g>
							</g>
						</g>
					</g>
				</g>
			</g>
			<g>
				<g>
					<path style="fill:#FFFFFF;" d="M985.834,1815.145l54.274-17.977l14.066-31.258l48.187,10.639l8.668-2.871
						c2.987-0.99,6.395,0.124,7.929,2.871c2.065,3.697,0.203,8.144-3.608,9.406l-126.198,41.8c-0.927,0.307-1.928-0.195-2.235-1.123
						l-2.723-8.221C983.745,1817.056,984.479,1815.594,985.834,1815.145z"/>
				</g>
				<g>
					<path style="fill:#FF424D;" d="M986.337,1815.056l-7.379-22.279c0,0,5.065-15.331,21.063-13.661
						c0,0,25.996,7.961,38.567-16.257l52.851,5.177c0,0,14.034,0.038,19.699,5.682L986.337,1815.056z"/>
				</g>
				<g>
					<g>
						<g>
							
								<rect x="982.142" y="1792.184" transform="matrix(0.9493 -0.3143 0.3143 0.9493 -517.181 400.2784)" width="0.973" height="23.353"/>
						</g>
					</g>
				</g>
				<g>
					<g>
						<g>
							<path d="M1020.961,1779.133c1.764-0.584,2.777-1.087,2.809-1.104l-0.44-0.868c-0.103,0.05-10.475,5.178-23.176,1.487
								l-0.271,0.935C1008.984,1782.228,1016.931,1780.468,1020.961,1779.133z"/>
						</g>
					</g>
				</g>
				<g>
					<g>
						<g>
							
								<rect x="992.218" y="1801.962" transform="matrix(0.269 -0.9631 0.9631 0.269 -1013.499 2275.9829)" width="0.974" height="7.479"/>
						</g>
					</g>
				</g>
				<g>
					<g>
						<g>
							
								<rect x="996.068" y="1799.441" transform="matrix(0.2701 -0.9628 0.9628 0.2701 -1008.7545 2275.7446)" width="0.972" height="7.478"/>
						</g>
					</g>
				</g>
				<g>
					<g>
						<g>
							<g>
								<g>
									<g>
										<g>
											<g>
												<g>
													<path d="M1119.289,1783.46c1.072-1.757,1.315-3.886,0.668-5.839c-1.212-3.66-5.177-5.652-8.838-4.44l-124.781,41.33
														c-1.963,0.65-3.03,2.775-2.38,4.738l2.04,6.159l0.924-0.306l-2.04-6.159c-0.481-1.454,0.309-3.027,1.762-3.508
														l124.781-41.33c3.151-1.044,6.564,0.67,7.608,3.822c0.557,1.681,0.348,3.513-0.575,5.027L1119.289,1783.46z"/>
												</g>
											</g>
										</g>
									</g>
								</g>
							</g>
						</g>
					</g>
				</g>
				<g>
					<g>
						<g>
							<path d="M1110.92,1773.979l0.705-0.671c-0.175-0.185-4.419-4.528-15.184-5.426c-10.578-0.883-57.335-5.461-57.806-5.508
								l-0.096,0.969c0.472,0.046,47.236,4.625,57.821,5.509C1106.718,1769.717,1110.88,1773.936,1110.92,1773.979z"/>
						</g>
					</g>
				</g>
			</g>
			<g>
				<g>
					<path style="fill:#4CB7D8;" d="M589.958,1452.831c0,0-24.014,85.244,30.585,103.923c54.599,18.679,241.349,4.193,241.349,4.193
						l83.122,211.593c0,0,57.096-7.713,83.678-43.045c0,0-74.583-245.895-106.912-260.981
						c-32.328-15.087-174.211-30.276-174.211-30.276L589.958,1452.831z"/>
				</g>
			</g>
			<g>
				<g>
					<path d="M944.007,1773.55l-0.205-0.521l-53.492-135.916l1.302-0.512l53.284,135.389c6.007-1.036,59.186-11.018,82.673-42.679
						l1.124,0.834c-25.132,33.877-83.546,43.229-84.133,43.319L944.007,1773.55z"/>
				</g>
			</g>
			<g>
				<g>
					
						<rect x="607.511" y="1426.34" transform="matrix(0.5911 -0.8066 0.8066 0.5911 -896.9438 1084.6687)" width="27.771" height="1.399"/>
				</g>
			</g>
			<g>
				<g>
					
						<rect x="607.917" y="1441.546" transform="matrix(0.5116 -0.8592 0.8592 0.5116 -937.0266 1235.9629)" width="21.592" height="1.399"/>
				</g>
			</g>
			<g>
				<g>
					<path d="M741.143,1566.104c-44.046,0.001-95.544-1.649-120.842-8.449c-20.586-5.534-32.846-24.045-35.455-53.533
						c-1.955-22.093,2.21-42.83,2.252-43.037l1.828,0.373c-0.042,0.204-4.156,20.71-2.218,42.536
						c2.577,29.026,14.043,46.474,34.079,51.859c48.638,13.073,195.255,6.98,196.73,6.918l0.08,1.863
						C816.882,1564.667,782.258,1566.104,741.143,1566.104z"/>
				</g>
			</g>
			<g>
				<path style="fill:#FF424D;" d="M733.788,1401.864l-3.158-73.803c9.441,1.958,24.912-4.901,36.37-11.09
					c-2.734-52.542-8.789-103.603-21.879-111.347c-25.148-14.878-79.63-22.704-111.978-17.816c0,0-46.56,9.08-57.322,15.428
					c-10.762,6.349-59.208,79.843-70.442,113.726c0,0,27.822,24.367,63.673,25.301l16.225-36.05l-0.953,152.767
					c11.297,9.528,120.269,1.673,187.821-8.218c0,0-2.961-25.291-3.016-47.753C754.81,1404.5,733.788,1401.864,733.788,1401.864z"/>
			</g>
			<g>
				<g>
					<g>
						<g>
							<path style="fill:#FE9F73;" d="M691.322,1110.152v44.744c0,0,0.63,15.125-12.604,17.015l2.471,20.179
								c0.919,7.501-3.567,14.682-10.771,16.963c-3.523,1.115-7.728,1.93-12.497,1.93c-15.125,0-23.317-11.344-24.578-17.015
								c-1.26-5.672,2.521-32.77,2.521-32.77l-0.461-13.316l1.721-51.594L691.322,1110.152z"/>
						</g>
					</g>
				</g>
			</g>
			<g>
				<g>
					<g>
						<g>
							<path style="fill:#21111D;" d="M654.805,1132.524c-0.157,0-0.314-0.058-0.437-0.176c-0.251-0.241-0.259-0.64-0.018-0.891
								c0.087-0.09,8.754-8.957,16.675-2.575c0.271,0.218,0.314,0.615,0.095,0.885c-0.218,0.272-0.615,0.315-0.886,0.095
								c-7.018-5.654-14.654,2.132-14.975,2.467C655.136,1132.459,654.971,1132.524,654.805,1132.524z"/>
						</g>
					</g>
				</g>
			</g>
			<g>
				<g>
					<g>
						<g>
							<path style="fill:#21111D;" d="M680.784,1128.743c-0.176,0-0.352-0.074-0.476-0.218c-0.228-0.263-0.2-0.66,0.063-0.889
								c0.254-0.22,6.266-5.362,10.066-2.102c0.264,0.227,0.295,0.624,0.068,0.888c-0.226,0.265-0.624,0.296-0.889,0.068
								c-2.977-2.553-8.366,2.052-8.42,2.099C681.077,1128.693,680.93,1128.743,680.784,1128.743z"/>
						</g>
					</g>
				</g>
			</g>
			<g>
				<g>
					<g>
						<g>
							<path d="M667.549,1135.071c0,1.044-0.846,1.891-1.891,1.891c-1.044,0-1.891-0.846-1.891-1.891
								c0-1.044,0.846-1.891,1.891-1.891C666.703,1133.181,667.549,1134.027,667.549,1135.071z"/>
						</g>
					</g>
				</g>
			</g>
			<g>
				<g>
					<g>
						<g>
							<path d="M687.646,1133.181c0,1.044-0.846,1.891-1.891,1.891c-1.044,0-1.891-0.846-1.891-1.891
								c0-1.044,0.846-1.891,1.891-1.891C686.799,1131.29,687.646,1132.137,687.646,1133.181z"/>
						</g>
					</g>
				</g>
			</g>
			<g>
				<g>
					<g>
						<g>
							<path style="fill:#21111D;" d="M638.887,1098.774l10.55,14.938c0,0,31.965,12.414,48.35-2.291
								c16.385-14.704,11.343-21.767,6.54-29.129c-2.367-3.629-13.67-11.017-27.535-4.861c-7.568,3.36-13.164-6.666-21.987-1.625
								c-8.823,5.042-19.23,13.773-18.066,17.227C637.904,1096.488,638.887,1098.774,638.887,1098.774z"/>
						</g>
					</g>
				</g>
			</g>
			<g>
				<g>
					<g>
						<g>
							<path style="fill:#21111D;" d="M639.525,1092.472c0,0-14.549-0.7-18.61,13.304c-4.061,14.004,1.401,21.339,1.54,25.514
								c0.14,4.175-2.691,32.324,17.07,30.223l5.337-46.495l-6.878-18.511L639.525,1092.472z"/>
						</g>
					</g>
				</g>
			</g>
			<g>
				<g>
					<g>
						
							<rect x="729.685" y="1250.891" transform="matrix(0.9995 -0.0316 0.0316 0.9995 -41.3451 23.732)" style="fill:#21111D;" width="1.89" height="139.74"/>
					</g>
				</g>
			</g>
			<g>
				<g>
					<g>
						<g>
							<path style="fill:#FE9F73;" d="M651.935,1134.415c0,6.265-5.079,11.344-11.343,11.344c-6.265,0-11.344-5.079-11.344-11.344
								s5.079-11.343,11.344-11.343C646.856,1123.072,651.935,1128.15,651.935,1134.415z"/>
						</g>
					</g>
				</g>
			</g>
			<g>
				<g>
					<g>
						<g>
							<path style="fill:#F07162;" d="M639.752,1141.366c-2.357,0-3.931-1.771-4.449-3.541c-0.613-2.094,0.09-4.128,1.79-5.183
								c2.512-1.559,4.79-0.559,5.956,0.209c-0.49-1.287-1.257-2.225-2.29-2.793c-2.235-1.23-5.007-0.334-5.035-0.325
								c-0.165,0.055-0.343-0.034-0.398-0.2c-0.055-0.165,0.034-0.343,0.199-0.398c0.124-0.041,3.054-0.992,5.533,0.369
								c1.431,0.785,2.405,2.176,2.894,4.132l0.274,1.097l-0.802-0.797c-0.113-0.113-2.811-2.736-5.999-0.758
								c-1.765,1.096-1.92,3.093-1.517,4.471c0.419,1.43,1.675,3.088,3.841,3.088c0.022,0,0.042-0.002,0.065,0
								c0.172,0,0.313,0.138,0.315,0.311c0.003,0.174-0.137,0.317-0.311,0.319C639.797,1141.366,639.774,1141.366,639.752,1141.366z
								"/>
						</g>
					</g>
				</g>
			</g>
			<g>
				<g>
					<g>
						<g>
							<path style="fill:#F07162;" d="M648.037,1159.063c0,0,0.888,25.315,32.504,27.733l-1.823-14.884
								C678.718,1171.912,658.213,1176.031,648.037,1159.063z"/>
						</g>
					</g>
				</g>
			</g>
			<g>
				<g>
					<g>
						<g>
							<path style="fill:#21111D;" d="M576.397,1328.061c-39.093-6.082-62.276-29.488-62.506-29.724l1.354-1.319
								c0.226,0.231,23,23.195,61.442,29.175L576.397,1328.061z"/>
						</g>
					</g>
				</g>
			</g>
			<g>
				<g>
					<g>
						<g>
							<path style="fill:#FE9F73;" d="M749.154,1399.635l-10.704-16.644h0c-5.898-9.532-15.422-22.032-25.336-23.139
								c-16.198-1.808-114.855-5.859-146.157-9.721l2.675-7.383c-0.046,0.372-23.607-3.898-23.607-3.898l-16.356-6.812
								l-15.777-8.745c-4.034,15.719-16.386,46.309-5.032,64.3c20.979,33.242,181.427,16.876,195.663,12.522l13.105,14.197
								l2.677,4.115c1.266,1.947,3.871,2.498,5.818,1.231c1.947-1.266,2.498-3.871,1.232-5.818l1.12,1.722
								c1.267,1.947,3.871,2.498,5.818,1.231l0,0c1.947-1.266,2.498-3.871,1.231-5.818c1.267,1.947,3.871,2.498,5.818,1.232
								s2.498-3.871,1.232-5.818l-1.12-1.722c1.267,1.947,3.871,2.498,5.818,1.232h0c0.078-0.051,0.151-0.108,0.225-0.163
								c0.018-0.012,0.036-0.026,0.053-0.038c0.036-0.028,0.072-0.055,0.106-0.083c0.004-0.004,0.009-0.006,0.009-0.006
								c0.008-0.007,0.011-0.011,0.015-0.015c0.262-0.219,0.489-0.465,0.684-0.732
								C750.654,1402.099,749.154,1399.635,749.154,1399.635z"/>
						</g>
					</g>
				</g>
			</g>
			<g>
				<g>
					<g>
						<g>
							<path style="fill:#21111D;" d="M569.558,1343.555l-0.604-0.014c-31.872-0.745-63.909-25.251-64.229-25.498l-0.59-0.457
								l20.214-44.787l1.723,0.778l-19.596,43.416c4.467,3.296,33.24,23.697,61.919,24.641l8.675-17.658l1.697,0.833
								L569.558,1343.555z"/>
						</g>
					</g>
				</g>
			</g>
			<g>
				<g>
					<g>
						<g>
							<path style="fill:#F07162;" d="M555.693,1365.568c-0.177,0.04-0.37,0.003-0.525-0.117c-0.275-0.214-0.325-0.609-0.111-0.885
								l11.485-14.785c0.213-0.275,0.609-0.325,0.884-0.111c0.275,0.214,0.325,0.609,0.111,0.885l-11.485,14.784
								C555.958,1365.46,555.831,1365.537,555.693,1365.568z"/>
						</g>
					</g>
				</g>
			</g>
			<g>
				<g>
					<g>
						<g>
							<path style="fill:#F07162;" d="M743.294,1407.079c-0.238,0.053-0.496-0.034-0.648-0.244l-15.03-20.636
								c-0.205-0.281-0.143-0.676,0.138-0.88c0.281-0.204,0.675-0.143,0.88,0.139l15.03,20.636c0.205,0.281,0.143,0.675-0.139,0.88
								C743.454,1407.026,743.375,1407.061,743.294,1407.079z"/>
						</g>
					</g>
				</g>
			</g>
			<g>
				<g>
					<g>
						<g>
							<path style="fill:#F07162;" d="M736.693,1413.116c-0.246,0.055-0.512-0.041-0.661-0.262l-14.344-21.274
								c-0.194-0.289-0.118-0.681,0.17-0.875c0.288-0.195,0.68-0.118,0.875,0.17l14.344,21.274c0.195,0.289,0.118,0.681-0.17,0.875
								C736.84,1413.069,736.768,1413.099,736.693,1413.116z"/>
						</g>
					</g>
				</g>
			</g>
			<g>
				<g>
					<g>
						<g>
							<path style="fill:#F07162;" d="M728.724,1416.963c-0.248,0.056-0.516-0.042-0.664-0.267l-11.932-18.033
								c-0.192-0.29-0.112-0.681,0.178-0.873c0.29-0.194,0.681-0.113,0.873,0.177l11.931,18.033
								c0.192,0.291,0.112,0.681-0.178,0.873C728.867,1416.918,728.796,1416.947,728.724,1416.963z"/>
						</g>
					</g>
				</g>
			</g>
			<g>
				<g>
					<g>
						<polygon style="fill:#21111D;" points="578.767,1324.809 607.345,1257.537 605.611,1256.783 575.821,1326.204 						"/>
					</g>
				</g>
			</g>
			<g>
				<g>
					<g>
						<g>
							<path style="fill:#F07162;" d="M674.219,1147.824c-0.132,0-0.255-0.084-0.299-0.216c-0.055-0.166,0.035-0.343,0.2-0.398
								l6.317-2.089l-1.996-14.866c-0.023-0.172,0.098-0.331,0.27-0.354c0.174-0.028,0.331,0.098,0.354,0.27l2.065,15.384
								l-6.813,2.253C674.285,1147.819,674.251,1147.824,674.219,1147.824z"/>
						</g>
					</g>
				</g>
			</g>
			<g>
				<g>
					<g>
						<g>
							<path style="fill:#FBFDFC;" d="M669.326,1153.962c0.194-0.037,12.478-0.326,12.478-0.326s-1.542,5.08-6.107,5.199
								C671.131,1158.955,669.326,1153.962,669.326,1153.962z"/>
						</g>
					</g>
				</g>
			</g>
			<g>
				<g>
					<path d="M703.534,1461.227l-2.652-0.756c60.608-4.916,67.21-20.613,67.242-20.761l0.241-24.46l1.54,0.017l-0.258,24.622
						C769.48,1440.708,765.26,1456.222,703.534,1461.227z"/>
				</g>
			</g>
			<g>
				<rect x="701.799" y="1415.884" style="fill:#FF424D;" width="46.021" height="9.298"/>
			</g>
			<g>
				<g>
					<g>
						<g>
							<polygon style="fill:#FFFFFF;" points="908.663,1331.005 758.504,1331.005 706.135,1464.365 856.294,1464.365 							"/>
						</g>
					</g>
					<g>
						<g>
							<polygon style="fill:#D2E0DF;" points="706.135,1464.365 713.971,1464.365 766.339,1331.005 758.504,1331.005 							"/>
						</g>
					</g>
					<g>
						<g>
							<path style="fill:#E2F2F1;" d="M810.494,1393.436c-2.082,6.126-0.556,12.184,3.406,13.531
								c3.963,1.346,8.863-2.528,10.944-8.655s0.556-12.184-3.406-13.531C817.475,1383.434,812.576,1387.309,810.494,1393.436z"/>
						</g>
					</g>
				</g>
				<g>
					<g>
						<path style="fill:#D2E0DF;" d="M656.496,1453.595h56.097v10.77h-56.097c-2.974,0-5.385-2.411-5.385-5.385l0,0
							C651.112,1456.006,653.523,1453.595,656.496,1453.595z"/>
					</g>
				</g>
				<g>
					<g>
						
							<rect x="670.699" y="1457.292" transform="matrix(-1 -1.224647e-16 1.224647e-16 -1 1376.8339 2916.272)" style="fill:#FFFFFF;" width="35.436" height="1.688"/>
					</g>
				</g>
			</g>
			<g>
				<g>
					<rect x="576.96" y="1427.66" style="fill:#4C222E;" width="3.615" height="415.352"/>
					
						<rect x="576.96" y="1427.66" transform="matrix(6.123234e-17 -1 1 6.123234e-17 -1056.5681 2214.1028)" style="fill:#4C222E;" width="3.615" height="415.352"/>
					
						<rect x="576.96" y="1427.66" transform="matrix(0.7071 -0.7071 0.7071 0.7071 -986.8398 888.229)" style="fill:#4C222E;" width="3.615" height="415.352"/>
					
						<rect x="576.96" y="1427.66" transform="matrix(-0.7071 -0.7071 0.7071 -0.7071 -168.3391 3200.9426)" style="fill:#4C222E;" width="3.615" height="415.352"/>
				</g>
				<path style="fill:#4C222E;" d="M578.768,1422.589c-117.497,0-212.747,95.25-212.747,212.747
					c0,117.497,95.25,212.747,212.747,212.747c117.497,0,212.747-95.25,212.747-212.747
					C791.514,1517.839,696.264,1422.589,578.768,1422.589z M578.768,1827.592c-106.181,0-192.257-86.076-192.257-192.257
					c0-106.18,86.076-192.257,192.257-192.257c106.18,0,192.257,86.076,192.257,192.257
					C771.024,1741.516,684.948,1827.592,578.768,1827.592z"/>
				<circle style="fill:#4C222E;" cx="578.767" cy="1635.335" r="43.689"/>
			</g>
			<g>
				<polygon style="fill:#4C222E;" points="949.426,1765.651 873.599,1765.651 927.217,1712.033 924.878,1709.693 871.26,1763.311 
					871.26,1687.484 867.952,1687.484 867.952,1763.311 814.334,1709.693 811.995,1712.033 865.613,1765.651 789.786,1765.651 
					789.786,1768.958 865.613,1768.958 811.995,1822.576 814.334,1824.916 867.952,1771.298 867.952,1847.125 871.26,1847.125 
					871.26,1771.298 924.878,1824.916 927.217,1822.576 873.599,1768.958 949.426,1768.958 				"/>
				<path style="fill:#F99247;" d="M1107.098,1833.152H892.67c-5.136,0-9.299-4.163-9.299-9.299l0,0
					c0-5.136,4.163-9.299,9.299-9.299h214.428c5.136,0,9.299,4.163,9.299,9.299l0,0
					C1116.397,1828.989,1112.234,1833.152,1107.098,1833.152z"/>
				<path style="fill:#4C222E;" d="M869.606,1686.527c-44.612,0-80.778,36.166-80.778,80.778c0,44.612,36.166,80.778,80.778,80.778
					c44.612,0,80.778-36.166,80.778-80.778C950.384,1722.692,914.218,1686.527,869.606,1686.527z M869.606,1836.284
					c-38.096,0-68.98-30.883-68.98-68.979s30.883-68.979,68.98-68.979c38.096,0,68.979,30.883,68.979,68.979
					S907.702,1836.284,869.606,1836.284z"/>
				<circle style="fill:#4C222E;" cx="869.606" cy="1767.305" r="16.588"/>
			</g>
		</g>
		<g>
			<g>
				<path style="fill:#21111D;" d="M731.467,1471.831c-42.098-38.54-96.73-59.764-153.832-59.764v-1.617
					c57.507,0,112.527,21.375,154.924,60.188L731.467,1471.831z"/>
			</g>
			<g>
				<path style="fill:#21111D;" d="M761.679,1483.382c-45.967-54.067-113.049-85.076-184.044-85.076
					c-27.128,0-54.046,4.589-79.351,13.359c-0.42,0.146-0.877-0.074-1.024-0.493l0,0c-0.148-0.423,0.076-0.889,0.5-1.036
					c25.474-8.828,52.569-13.446,79.875-13.446c71.47,0,139.001,31.216,185.276,85.645L761.679,1483.382z"/>
			</g>
		</g>
		<g>
			<path style="fill:#4C222E;" d="M787.175,1537.696c-2.494,0-4.911-1.331-6.185-3.677
				c-40.97-75.418-119.686-122.269-205.431-122.269c-31.542,0-62.136,6.176-90.935,18.357c-3.579,1.512-7.703-0.161-9.216-3.738
				c-1.513-3.577,0.161-7.703,3.738-9.216c30.541-12.918,62.979-19.468,96.414-19.468c90.905,0,174.356,49.668,217.789,129.621
				c1.854,3.413,0.591,7.682-2.823,9.536C789.459,1537.421,788.309,1537.696,787.175,1537.696z"/>
		</g>
	</g>
	<g>
		<g>
			<g>
				<g>
					<g>
						<g>
							<g>
								<g>
									<g>
										<g>
											<g>
												<path style="fill:#FCAF90;" d="M2112.299,982.865l-15.308,0.22c-2.657-0.698-7.896-2.447-14.131-4.146
													c-1.753,5.16-3.239,9.1-3.891,8.975l-0.24,1.175c-0.061,0.301-0.239,0.548-0.476,0.706
													c-1.159,5.431-2.47,12.368-3.944,18.1c-1.048,4.073-2.06,3.366,0.554,6.467c1.512,1.794,10.236,8.76,13.853,9.616
													l23.586,7.826c1.582-7.188,25.582-25.974,24.663-27.355L2112.299,982.865z"/>
											</g>
										</g>
									</g>
								</g>
							</g>
						</g>
					</g>
				</g>
			</g>
			<g>
				<g>
					<g>
						<path style="fill:#91D3E2;" d="M2139.655,937.534c0,0,23.213,9.956,13.278,32.271c-9.263,20.805-28.787,10.843-33.813,8.329
							C2114.093,975.62,2139.655,937.534,2139.655,937.534z"/>
					</g>
				</g>
				<g>
					<g>
						<path style="fill:#52B6C6;" d="M2113.156,980.854c0,0-10.378,17.514-12.925,32.602c-2.375,14.07-4.941,15.833-9.925,14.031
							c-4.984-1.803-16.539-8.167-15.443-13.126c1.096-4.958,10.117-29.503,22.309-40.708
							C2109.364,962.448,2113.156,980.854,2113.156,980.854z"/>
					</g>
				</g>
				<g>
					<g>
						<path style="fill:#52B6C6;" d="M2078.808,872.031c0,0,32.232,39.889,42.811,52.178l4.549,13.299l-14.171,31.393l-14.649,2.902
							l-66.593-4.453l3.369-6.713l20.013-28.777l15.579-34.692l7.685-21.839L2078.808,872.031z"/>
					</g>
				</g>
				<g>
					<g>
						<path style="fill:#D4EBF2;" d="M2121.618,924.209c0,0-2.173,29.268-24.271,47.594c0,0-1.457,1.856,0.146,3.687l11.121,6.248
							c0,0,5.01,3.443,11.807-3.255c6.797-6.699,19.831-22.348,20.23-43.367c0,0,0.236-5.656-6.013-8.381l-8.245-3.96
							C2126.394,922.775,2122.702,921.144,2121.618,924.209z"/>
					</g>
				</g>
				<g>
					<g>
						<path style="fill:#91D3E2;" d="M2078.808,872.031c0,0-8.361-10.469-14.428-11.92c-6.067-1.451-14.235,4.939-19.893,10.426
							c-5.658,5.487-22.787,28.383-28.404,45.436s-12.064,41.762-4.387,46.971c7.677,5.209,19.059,4.407,19.059,4.407
							s16.826-8.096,34.609-42.548C2083.146,890.351,2078.808,872.031,2078.808,872.031z"/>
					</g>
				</g>
				<g>
					<g>
						<path style="fill:#3B9DA8;" d="M2017.429,965.53c0,0-6.346-15.268,7.777-48.117c22.235-51.719,44.114-54.578,44.114-54.578
							s11.602,15.017-16.263,63.288C2030.097,965.898,2017.429,965.53,2017.429,965.53z"/>
					</g>
				</g>
				<g>
					<g>
						<path style="fill:#D4EBF2;" d="M2063.583,905.49c-2.644,6.082-6.081,12.933-10.527,20.634
							c-2.224,3.854-4.351,7.327-6.381,10.464c-5.492-3.727-13.874-11.625-6.107-23.878
							C2047.766,901.356,2058.059,903.302,2063.583,905.49z"/>
					</g>
				</g>
				<g>
					<g>
						<path style="fill:#1D1D1B;" d="M2090.222,1027.718c-2.559-0.926-6.663-2.958-10.062-5.411
							c-2.874-2.075-6.168-5.147-5.537-7.999c0.578-2.613,3.095-9.861,6.884-17.796c3.308-6.927,8.59-16.451,15.007-22.577
							c-0.092-0.817,0.187-1.512,0.406-1.914l-66.166-4.424c-0.516,0.032-11.678,0.651-19.197-4.45
							c-7.614-5.166-1.869-28.547,4.292-47.251c5.637-17.114,22.723-39.967,28.466-45.536c5.774-5.599,13.952-11.964,20.121-10.488
							c6.081,1.448,14.219,11.576,14.562,12.005c0.32,0.396,31.83,39.382,42.546,51.87c0.314-0.657,0.786-1.123,1.406-1.391
							c1.551-0.669,3.462,0.159,3.55,0.199l8.236,3.956c6.33,2.76,6.162,8.558,6.16,8.611c-0.017,0.881-0.057,1.783-0.121,2.682
							c2.201,1.134,7.36,4.173,10.984,9.328c4.687,6.666,5.157,14.328,1.396,22.774c-2.74,6.153-6.635,10.184-11.577,11.98
							c-5.814,2.113-12.985,1.134-21.316-2.909c-2.647,2.506-5.325,3.813-7.965,3.89c-2.939,5.323-9.81,18.688-11.825,30.632
							c-1.483,8.784-3.043,12.925-5.385,14.292c-1.026,0.599-2.235,0.685-3.834,0.257
							C2090.927,1027.958,2090.583,1027.849,2090.222,1027.718z M2120.326,978.459c8.272,4.045,15.367,5.042,21.087,2.964
							c4.812-1.749,8.613-5.691,11.296-11.718c8.747-19.647-8.711-29.719-12.3-31.538l-0.146-0.074l0.012-0.163
							c0.069-0.944,0.114-1.892,0.131-2.823c0.009-0.224,0.147-5.524-5.874-8.149l-8.237-3.957c-0.018-0.008-1.8-0.778-3.152-0.193
							c-0.602,0.26-1.037,0.76-1.293,1.484l-0.141,0.399l-0.277-0.321c-10.459-12.151-42.493-51.785-42.816-52.185
							c-0.082-0.103-8.206-10.206-14.107-11.788c-0.062-0.017-0.125-0.032-0.186-0.047c-5.953-1.423-13.98,4.85-19.665,10.363
							c-5.718,5.544-22.729,28.297-28.341,45.337c-3.622,10.998-6.035,20.381-7.169,27.887c-1.545,10.219-0.641,16.546,2.687,18.804
							c7.516,5.1,18.791,4.374,18.904,4.366l0.017-0.001l66.61,4.454l0.461,0.031l-0.283,0.365
							c-0.007,0.009-0.701,0.919-0.524,2.033l0.02,0.128l-0.094,0.089c-6.404,6.071-11.688,15.597-14.993,22.519
							c-3.772,7.9-6.275,15.101-6.848,17.691c-1.052,4.757,10.51,11.114,15.287,12.842c2.007,0.726,3.338,0.758,4.451,0.109
							c2.172-1.268,3.712-5.44,5.148-13.949c2.044-12.111,9.037-25.652,11.948-30.912l0.07-0.125l0.143-0.002
							c2.598-0.031,5.256-1.335,7.898-3.874l0.124-0.119L2120.326,978.459z"/>
					</g>
				</g>
				<g>
					<g>
						<path style="fill:#1D1D1B;" d="M2120.387,978.858c10.189-9.647,15.187-20.249,17.585-27.444
							c2.6-7.801,2.792-13.403,2.793-13.459l-0.491-0.014c-0.002,0.055-0.193,5.6-2.774,13.337
							c-2.381,7.137-7.342,17.654-17.451,27.224L2120.387,978.858z"/>
					</g>
				</g>
				<g>
					<g>
						<path style="fill:#1D1D1B;" d="M2097.509,971.989c5.32-4.624,9.91-10.012,13.645-16.014
							c2.987-4.802,5.436-10.005,7.278-15.465c3.137-9.3,3.43-16.222,3.432-16.292l-0.491-0.018
							c-0.002,0.068-0.294,6.934-3.413,16.17c-2.876,8.518-8.815,20.855-20.774,31.248L2097.509,971.989z"/>
					</g>
				</g>
				<g>
					<g>
						<path style="fill:#1D1D1B;" d="M2110.257,982.425c1.048,0.281,1.74,0.418,1.849,0.439l0.093-0.482
							c-0.112-0.021-11.244-2.23-15.217-8.487l-0.415,0.263C2099.692,979.08,2106.852,981.513,2110.257,982.425z"/>
					</g>
				</g>
				<g>
					<g>
						<path style="fill:#1D1D1B;" d="M2017.553,965.833c0.711,0.19,3.034,0.379,7.546-3.05c4.915-3.736,13.567-12.722,26.876-34.32
							c6.583-10.682,11.604-20.779,14.923-30.01c2.659-7.393,4.239-14.253,4.697-20.388c0.783-10.486-1.948-15.163-2.065-15.356
							l-0.421,0.253c0.028,0.047,2.778,4.777,1.992,15.133c-0.726,9.571-4.707,26.034-19.543,50.111
							c-13.155,21.347-21.716,30.301-26.582,34.054c-5.255,4.053-7.414,3.063-7.435,3.052l-0.227,0.436
							C2017.33,965.755,2017.408,965.794,2017.553,965.833z"/>
					</g>
				</g>
				<g>
					<g>
						
							<rect x="2129.627" y="935.88" transform="matrix(0.8364 -0.5482 0.5482 0.8364 -166.6678 1321.2732)" style="fill:#1D1D1B;" width="0.491" height="7.868"/>
					</g>
				</g>
				<g>
					<g>
						
							<rect x="2132.801" y="933.174" transform="matrix(0.8362 -0.5484 0.5484 0.8362 -164.5561 1323.2173)" style="fill:#1D1D1B;" width="0.491" height="7.868"/>
					</g>
				</g>
				<g>
					<g>
						
							<rect x="2086.489" y="893.899" transform="matrix(0.8364 -0.5481 0.5481 0.8364 -150.758 1290.5077)" style="fill:#1D1D1B;" width="0.491" height="7.869"/>
					</g>
				</g>
				<g>
					<g>
						
							<rect x="2089.662" y="891.192" transform="matrix(0.8366 -0.5478 0.5478 0.8366 -148.8903 1291.0417)" style="fill:#1D1D1B;" width="0.491" height="7.868"/>
					</g>
				</g>
			</g>
			<g>
				<polygon style="fill:#FCAF90;" points="2112.855,990.614 2096.381,991.409 2095.602,995.378 2094.565,998.814 2096.04,1001.332 
					2106.965,1002.395 2113.531,998.5 				"/>
			</g>
			<g>
				<g>
					<g>
						<g>
							<g>
								<g>
									<g>
										<g>
											<g>
												<g>
													<path style="fill:#F07162;" d="M2115.533,1004.417c0.316-0.112,0.547-0.51,0.54-0.974
														c-0.008-0.533-0.33-0.948-0.719-0.927l-17.635-1.977c-1.668,0.083-3.079-1.555-3.209-3.731
														c-0.07-1.165,0.206-2.292,0.776-3.17c0.571-0.879,1.351-1.387,2.202-1.429l16.231-0.808
														c0.387-0.025,0.699-0.469,0.692-1.001c-0.007-0.533-0.328-0.949-0.717-0.93l-16.231,0.808
														c-1.224,0.061-2.399,0.823-3.222,2.091c-0.834,1.285-1.238,2.931-1.136,4.635c0.191,3.185,2.229,5.587,4.64,5.467
														l17.638,1.977C2115.435,1004.445,2115.485,1004.434,2115.533,1004.417z"/>
												</g>
											</g>
										</g>
									</g>
								</g>
							</g>
						</g>
					</g>
				</g>
			</g>
			<g>
				<g>
					<g>
						<g>
							<g>
								<g>
									<g>
										<g>
											<g>
												<path style="fill:#FCAF90;" d="M2075.487,986.965c-1.264,2.804-0.085,5.051,0.374,5.275l14.214,6.95
													c1.721,0.842,4.043-0.228,5.236-2.561c1.307-2.556,0.802-5.459-1.055-6.366l-14.152-6.919
													C2080.103,983.344,2076.751,984.161,2075.487,986.965z"/>
											</g>
										</g>
									</g>
								</g>
							</g>
						</g>
					</g>
				</g>
			</g>
			<g>
				<g>
					<g>
						<g>
							<g>
								<g>
									<g>
										<g>
											<g>
												<path style="fill:#FCAF90;" d="M2071.744,994.958c-1.303,2.785-0.961,5.63-0.509,5.867l15.133,7.898
													c1.7,0.888,4.028-0.13,5.252-2.443c1.342-2.535,0.884-5.462-0.949-6.419l-15.519-8.099
													C2075.152,991.761,2073.046,992.173,2071.744,994.958z"/>
											</g>
										</g>
									</g>
								</g>
							</g>
						</g>
					</g>
				</g>
			</g>
			<g>
				<g>
					<g>
						<g>
							<g>
								<g>
									<g>
										<g>
											<g>
												<g>
													<path style="fill:#F07162;" d="M2074.294,992.389c-0.236-0.218-0.286-0.656-0.102-1.061
														c0.213-0.466,0.656-0.709,0.992-0.544l15.275,7.561c1.44,0.703,3.316-0.203,4.269-2.068
														c0.51-0.999,0.702-2.093,0.537-3.081c-0.165-0.988-0.657-1.731-1.393-2.09l-14.008-6.849
														c-0.332-0.169-0.436-0.677-0.224-1.142c0.211-0.467,0.654-0.711,0.99-0.547l14.007,6.849
														c1.057,0.517,1.8,1.631,2.037,3.057c0.241,1.445-0.037,3.046-0.784,4.505c-1.396,2.729-4.119,4.071-6.2,3.053
														l-15.277-7.562C2074.37,992.451,2074.33,992.422,2074.294,992.389z"/>
												</g>
											</g>
										</g>
									</g>
								</g>
							</g>
						</g>
					</g>
				</g>
			</g>
			<g>
				<g>
					<g>
						<g>
							<g>
								<g>
									<g>
										<g>
											<g>
												<path style="fill:#FCAF90;" d="M2080.878,977.702c-1.347,2.765-0.93,5.63-0.476,5.862l15.182,7.742
													c1.671,0.852,3.956-0.093,5.194-2.34c1.418-2.573,0.959-5.58-0.915-6.536l-14.167-7.224
													C2084.119,974.403,2081.659,976.099,2080.878,977.702z"/>
											</g>
										</g>
									</g>
								</g>
							</g>
						</g>
					</g>
				</g>
			</g>
			<g>
				<g>
					<g>
						<g>
							<g>
								<g>
									<g>
										<g>
											<g>
												<g>
													<path style="fill:#F07162;" d="M2079.937,984.25c-0.233-0.222-0.279-0.662-0.091-1.065
														c0.217-0.464,0.662-0.701,0.994-0.529l15.155,7.821c1.428,0.728,3.308-0.152,4.277-2.007
														c0.519-0.994,0.72-2.088,0.566-3.082c-0.155-0.994-0.638-1.746-1.368-2.117l-13.898-7.087
														c-0.329-0.174-0.428-0.685-0.213-1.149c0.215-0.464,0.66-0.703,0.993-0.533l13.898,7.087
														c1.049,0.535,1.778,1.664,2.001,3.098c0.226,1.453-0.068,3.054-0.827,4.506c-1.419,2.715-4.148,4.018-6.213,2.965
														l-15.157-7.822C2080.012,984.313,2079.973,984.284,2079.937,984.25z"/>
												</g>
											</g>
										</g>
									</g>
								</g>
							</g>
						</g>
					</g>
				</g>
			</g>
			<g>
				<g>
					<g>
						<g>
							<g>
								<g>
									<g>
										<g>
											<g>
												<g>
													<path style="fill:#F07162;" d="M2071.436,1001.374c-0.242-0.223-0.287-0.677-0.09-1.086
														c0.222-0.461,0.669-0.688,0.998-0.509l14.614,7.981c1.432,0.748,3.117-0.01,4.089-1.847
														c0.525-0.99,0.732-2.084,0.583-3.08c-0.148-0.997-0.626-1.753-1.353-2.134l-15.519-8.099
														c-0.333-0.17-0.425-0.689-0.206-1.152c0.218-0.463,0.663-0.699,0.995-0.525l15.519,8.099
														c1.045,0.543,1.766,1.682,1.981,3.121c0.216,1.458-0.086,3.057-0.852,4.503c-1.427,2.696-3.964,3.867-6.034,2.787
														l-14.622-7.986C2071.501,1001.427,2071.467,1001.402,2071.436,1001.374z"/>
												</g>
											</g>
										</g>
									</g>
								</g>
							</g>
						</g>
					</g>
				</g>
			</g>
			<g>
				<g>
					<g>
						<g>
							<g>
								<g>
									<g>
										<g>
											<g>
												<path style="fill:#FCAF90;" d="M2069.072,1004.515c-1.235,2.583-0.944,5.245-0.525,5.472l13.987,7.588
													c1.572,0.852,3.743-0.065,4.901-2.209c1.269-2.349,0.871-5.089-0.824-6.008l-14.344-7.781
													C2072.267,1001.577,2070.308,1001.932,2069.072,1004.515z"/>
											</g>
										</g>
									</g>
								</g>
							</g>
						</g>
					</g>
				</g>
			</g>
			<g>
				<g>
					<g>
						<g>
							<g>
								<g>
									<g>
										<g>
											<g>
												<g>
													<path style="fill:#F07162;" d="M2068.436,1010.231c-0.241-0.222-0.287-0.676-0.09-1.084
														c0.221-0.461,0.668-0.69,0.997-0.511l13.987,7.587c1.295,0.703,3.021-0.065,3.931-1.749
														c0.487-0.903,0.686-1.904,0.559-2.821c-0.126-0.917-0.558-1.62-1.217-1.977l-14.344-7.781
														c-0.326-0.175-0.416-0.696-0.194-1.158c0.221-0.461,0.668-0.69,0.997-0.511l14.344,7.781
														c0.977,0.529,1.644,1.614,1.833,2.975c0.19,1.381-0.108,2.888-0.842,4.244c-1.371,2.538-3.95,3.709-5.871,2.666
														l-13.987-7.587C2068.502,1010.285,2068.467,1010.26,2068.436,1010.231z"/>
												</g>
											</g>
										</g>
									</g>
								</g>
							</g>
						</g>
					</g>
				</g>
			</g>
		</g>
		<g>
			<g>
				<g>
					<g>
						<g>
							<path style="fill:#FE9F73;" d="M2466.066,867.621c17.237-3.464,34.744,6.91,34.744,6.91s5.297,10.766,5.788,12.006
								c0.49,1.24-7.037-3.633-7.037-3.633l-53.692,14.907l1.318-9.868C2448.535,877.853,2456.085,869.627,2466.066,867.621z"/>
						</g>
					</g>
				</g>
			</g>
			<g>
				<g>
					<g>
						<g>
							<g>
								<g>
									<g>
										<path style="fill:#FCAF90;" d="M2497.674,928.895l-2.201,13.029c0,0,0.159,27.136-1.824,32.546
											c-1.983,5.41-11.527,15.486-26.395,13.5c-4.688-0.626-8.715-1.979-12.032-3.538c-6.783-3.188-10.249-10.837-8.361-18.09
											l5.078-19.513c-12.762-3.596-10.156-18.382-10.156-18.382l5.557-41.614l55.416-8.886L2497.674,928.895z"/>
									</g>
								</g>
							</g>
						</g>
					</g>
				</g>
			</g>
			<g>
				<g>
					<g>
						<g>
							<g>
								<g>
									<g>
										<path style="fill:#4C222E;" d="M2480.996,909.492c0.186,0.291,0.1,0.677-0.19,0.862c-0.142,0.09-0.306,0.117-0.459,0.087
											c-0.161-0.032-0.309-0.128-0.405-0.277c-0.248-0.387-6.161-9.443-14.085-5.307c-0.307,0.16-0.684,0.042-0.844-0.265
											c-0.16-0.306-0.041-0.684,0.265-0.843C2474.221,899.081,2480.93,909.387,2480.996,909.492z"/>
									</g>
								</g>
							</g>
						</g>
					</g>
				</g>
			</g>
			<g>
				<g>
					<g>
						<g>
							<g>
								<g>
									<g>
										<path style="fill:#4C222E;" d="M2454.289,898.685c0.309,0.155,0.433,0.53,0.279,0.839
											c-0.084,0.169-0.235,0.283-0.405,0.326c-0.141,0.036-0.294,0.023-0.434-0.047c-0.063-0.032-6.37-3.136-8.606,0.047
											c-0.199,0.283-0.588,0.352-0.871,0.153c-0.282-0.198-0.35-0.588-0.152-0.871
											C2446.953,895.068,2453.991,898.535,2454.289,898.685z"/>
									</g>
								</g>
							</g>
						</g>
					</g>
				</g>
			</g>
			<g>
				<g>
					<g>
						<g>
							<g>
								<g>
									<g>
										<path d="M2469.862,910.47c1.026,0.137,1.747,1.08,1.61,2.107c-0.137,1.027-1.08,1.748-2.107,1.611
											c-1.026-0.137-1.747-1.081-1.61-2.107C2467.892,911.054,2468.835,910.333,2469.862,910.47z"/>
									</g>
								</g>
							</g>
						</g>
					</g>
				</g>
			</g>
			<g>
				<g>
					<g>
						<g>
							<g>
								<g>
									<g>
										<path d="M2450.354,905.973c1.027,0.137,1.748,1.08,1.61,2.107c-0.137,1.026-1.08,1.747-2.107,1.61
											c-1.026-0.137-1.747-1.08-1.61-2.106C2448.384,906.557,2449.328,905.836,2450.354,905.973z"/>
									</g>
								</g>
							</g>
						</g>
					</g>
				</g>
			</g>
			<g>
				<g>
					<g>
						<g>
							<g>
								<g>
									<g>
										<path style="fill:#33192C;" d="M2500.897,873.882c0,0,15.839,1.346,17.993,15.646c2.154,14.3-5.622,20.67-6.308,24.756
											c-0.686,4.086-1.598,32.129-20.749,27.47l0.857-46.407l9.192-17.294L2500.897,873.882z"/>
									</g>
								</g>
							</g>
						</g>
					</g>
				</g>
			</g>
			<g>
				<g>
					<g>
						<g>
							<g>
								<g>
									<g>
										<path style="fill:#FCAF90;" d="M2495.832,903.823c6.159,0.823,10.485,6.482,9.662,12.64
											c-0.823,6.159-6.482,10.485-12.641,9.662c-6.159-0.823-10.485-6.482-9.662-12.641
											C2484.014,907.326,2489.673,903,2495.832,903.823z"/>
									</g>
								</g>
							</g>
						</g>
					</g>
				</g>
			</g>
			<g>
				<g>
					<g>
						<g>
							<g>
								<g>
									<g>
										<path style="fill:#F07162;" d="M2494.528,910.084c2.616-1.012,5.372,0.307,5.488,0.364
											c0.155,0.076,0.219,0.263,0.144,0.417c-0.076,0.156-0.263,0.221-0.418,0.144c-0.026-0.013-2.634-1.258-4.992-0.341
											c-1.09,0.423-1.968,1.243-2.618,2.445c1.248-0.601,3.618-1.286,5.883,0.577c1.533,1.261,1.956,3.352,1.079,5.33
											c-0.742,1.672-2.522,3.207-4.838,2.897c-0.022-0.003-0.044-0.007-0.065-0.01c-0.171-0.025-0.289-0.185-0.264-0.355
											c0.025-0.17,0.182-0.287,0.35-0.264c0.023,0.002,0.042,0.006,0.064,0.009c2.13,0.285,3.582-1.18,4.182-2.531
											c0.577-1.301,0.687-3.285-0.905-4.594c-2.875-2.363-5.871-0.139-5.997-0.042l-0.894,0.679l0.414-1.043
											C2491.878,911.908,2493.018,910.668,2494.528,910.084z"/>
									</g>
								</g>
							</g>
						</g>
					</g>
				</g>
			</g>
			<g>
				<g>
					<g>
						<g>
							<g>
								<g>
									<g>
										<path style="fill:#F07162;" d="M2483.787,938.227c0,0-4.196,24.77-35.594,22.995l3.746-14.392
											C2451.939,946.83,2471.555,953.572,2483.787,938.227z"/>
									</g>
								</g>
							</g>
						</g>
					</g>
				</g>
			</g>
			<g>
				<g>
					<g>
						<g>
							<g>
								<g>
									<g>
										<path style="fill:#F07162;" d="M2457.461,905.532c0.167,0.045,0.265,0.217,0.22,0.383l-3.914,14.352l5.936,2.882
											c0.155,0.076,0.22,0.262,0.145,0.418c-0.06,0.125-0.192,0.191-0.322,0.173c-0.032-0.004-0.064-0.014-0.095-0.029
											l-6.402-3.109l4.05-14.852C2457.123,905.585,2457.294,905.482,2457.461,905.532z"/>
									</g>
								</g>
							</g>
						</g>
					</g>
				</g>
			</g>
			<g>
				<g>
					<g>
						<g>
							<path style="fill:#33192C;" d="M2453.922,865.092c0,0,0.019-16.044,13.701-9.462c13.682,6.582,40.266,9.51,45.948,23.763
								c5.681,14.254-20.967,16.603-20.967,16.603s-46.982-9.13-48.42-20.615C2442.746,863.896,2453.922,865.092,2453.922,865.092z"
								/>
						</g>
					</g>
				</g>
			</g>
			<g>
				<g>
					<g>
						<path style="fill:#33192C;" d="M2496.518,887.994c0.47,0.319,9.358,6.467,8.124,6.086c-1.234-0.381-10.737-0.921-10.737-0.921
							l-1.363,10.224c0,0-4.767,5.486-4.471,13.302c0,0-3.04,0.677-3.224-1.783c-0.184-2.461,5.06-18.686-0.331-22.484
							C2479.124,888.62,2496.048,887.675,2496.518,887.994z"/>
					</g>
				</g>
			</g>
			<g>
				<g>
					<g>
						<g>
							<g>
								<path style="fill:#FBFDFC;" d="M2460.58,928.758c-0.168-0.078-11.27-3.103-11.27-3.103s0.259,4.965,4.382,6.1
									C2457.816,932.89,2460.58,928.758,2460.58,928.758z"/>
							</g>
						</g>
					</g>
				</g>
			</g>
		</g>
		<g>
			<g>
				<g>
					<g>
						<g>
							<path style="fill:#FCAF90;" d="M2646.655,1338.63c1.197-1.27,4.689-1.383,7.519-0.802
								c28.447-3.018,32.476-7.908,40.221-8.015l0.045,6.069l0.201,29.164c-0.038,8.823,1.53,17.578,4.627,25.84l0.777,2.075
								c0.977,2.607-0.436,5.524-3.143,6.344c-2.471,0.748-5.087-0.679-5.993-3.097l-5.639-15.043
								c-0.177-0.472-0.634-0.778-1.137-0.764c-0.742,0.022-1.279,0.717-1.113,1.441l5.31,23.124
								c0.608,2.649-1.117,4.882-3.834,4.962c-2.717,0.08-5.438-2.022-6.046-4.671l-5.415-23.581
								c-0.126-0.548-0.621-0.93-1.182-0.913l-0.397,0.012c-0.65,0.019-1.161,0.562-1.142,1.212l0.79,26.825
								c0.076,2.581-1.805,4.891-4.376,5.134c-2.817,0.266-5.228-1.9-5.31-4.683l-0.794-26.991c-0.019-0.65-0.562-1.161-1.212-1.142
								l-1.261,0.037c-0.591,0.017-1.077,0.47-1.137,1.058l-2.528,24.96c-0.26,2.569-2.426,4.615-5.006,4.522
								c-2.827-0.103-4.937-2.563-4.656-5.333c0,0,1.81-38.268,1.606-44.272l-11.347,8.226c-1.836,1.948-4.905,2.038-6.852,0.201
								l0,0c-1.948-1.836-2.038-4.904-0.202-6.852L2646.655,1338.63z"/>
						</g>
					</g>
				</g>
			</g>
			<g>
				<g>
					<path style="fill:#FCAF90;" d="M2694.502,1344.984l-50.297-3.061l-10.168-69.442l57.691-2.638
						C2693.528,1308.394,2694.502,1344.984,2694.502,1344.984z"/>
				</g>
			</g>
		</g>
		<g>
			<g>
				<g>
					<g>
						<g>
							<g>
								<g>
									<g>
										<g>
											<g>
												<polygon style="fill:#FE9F73;" points="2432.482,1764.494 2431.575,1825.651 2373.997,1824.846 2375.139,1756.511 
																									"/>
											</g>
										</g>
									</g>
								</g>
							</g>
						</g>
					</g>
				</g>
			</g>
			<g>
				<g>
					<g>
						<g>
							<g>
								<g>
									<g>
										<g>
											<g>
												<polygon style="fill:#FE9F73;" points="2625.495,1797.248 2567.865,1808.86 2554.559,1741.822 2613.471,1737.278 
																									"/>
											</g>
										</g>
									</g>
								</g>
							</g>
						</g>
					</g>
				</g>
			</g>
			<g>
				<g>
					<g>
						<g>
							<g>
								<g>
									<g>
										<path style="fill:#4C1B43;" d="M2356.096,1261.35c2.058-13.388,13.017-21.75,25.661-16.893l79.204,30.425
											c8.451,3.247,13.915,11.479,13.607,20.527c-2.146,63.156-11.486,310.206-31.123,471.84
											c-1.294,10.654-10.324,18.693-21.056,18.665c-11.881-0.031-28.408-1.448-46.721-7.04
											c-8.851-2.703-14.996-10.753-15.146-20.006l-7.092-483.525c-0.02-1.195,4.483-9.48,4.664-10.661L2356.096,1261.35z"/>
									</g>
								</g>
							</g>
						</g>
					</g>
				</g>
			</g>
			<g>
				<g>
					<g>
						<g>
							<g>
								<g>
									<g>
										<path style="fill:#5B2750;" d="M2576.671,1530.798c9.834,76.83,37.94,156.623,42.485,223.552
											c0.603,8.873-5.371,16.811-14.052,18.74c-12.29,2.732-31.236,5.307-53.382,2.71c-7.511-0.881-13.677-6.373-15.392-13.739
											l-61.75-211.773l-37.418-214.118l-40.117-116.441l160.844,47.202C2557.89,1266.932,2558.959,1392.411,2576.671,1530.798z"
											/>
									</g>
								</g>
							</g>
						</g>
					</g>
				</g>
			</g>
			<g>
				<g>
					<path d="M2446.521,1389.723c0.496-0.079,0.965,0.244,1.051,0.739l27.895,159.621l59.499,204.056
						c0.141,0.482-0.136,0.986-0.617,1.126c-0.085,0.025-0.171,0.036-0.255,0.036c-0.394,0-0.756-0.257-0.872-0.654l-59.514-204.105
						l-0.014-0.049l-27.912-159.72C2445.697,1390.28,2446.027,1389.81,2446.521,1389.723z"/>
				</g>
			</g>
			<g>
				<path d="M2560.201,1341.179c0.5-0.051,0.942,0.331,0.983,0.833l13.652,165.701c0.07,0.843,0.118,1.432,0.119,1.846
					c0,0,0.001,0.006,0.002,0.009h-0.002h0.002c0.103,0.425,0.206,1.055,0.358,1.975c5.261,31.89,15.103,89.789,21.903,119.255
					c0.113,0.491-0.193,0.98-0.683,1.093c-0.069,0.016-0.138,0.024-0.205,0.024c-0.415,0-0.79-0.285-0.887-0.706
					c-6.812-29.516-16.661-87.458-21.926-119.369c-0.079-0.476-0.144-0.871-0.195-1.182l-0.046,0.004l-0.102-0.891
					c-0.002-0.019-0.004-0.039-0.005-0.058c-0.149-1.998-13.666-165.892-13.803-167.552
					C2559.326,1341.659,2559.699,1341.219,2560.201,1341.179z"/>
			</g>
			<g>
				<path d="M2353.766,1342.628c0.533-0.024,0.917,0.394,0.926,0.897l6.471,398.646c0.008,0.503-0.393,0.917-0.896,0.925h-0.015
					c-0.497,0-0.903-0.399-0.911-0.897l-6.471-398.646C2352.862,1343.051,2353.263,1342.637,2353.766,1342.628z"/>
			</g>
			<g>
				<g>
					<path style="fill:#4CB7D8;" d="M2316.417,1832.959h8.065l37.445-22.3l20.472,22.3h50.495c1.26,0,2.282,1.022,2.282,2.282v7.649
						c0,0.863-0.699,1.562-1.562,1.562h-117.409c-3.546,0-6.342-3.212-5.637-6.884
						C2311.09,1834.838,2313.638,1832.959,2316.417,1832.959z"/>
				</g>
			</g>
			<g>
				<g>
					<path style="fill:#33192C;" d="M2331.275,1822.79l42.871-19.017c17.264,16.813,36.848,2.92,36.848,2.92
						c12.948-5.843,21.452,5.604,21.452,5.604v20.728h-116.109C2319.521,1826.719,2331.275,1822.79,2331.275,1822.79z"/>
				</g>
			</g>
			<g>
				<g>
					<g>
						<g>
							<rect x="2432.017" y="1812.296" width="0.86" height="20.625"/>
						</g>
					</g>
				</g>
			</g>
			<g>
				<g>
					<g>
						<g>
							<path d="M2410.751,1806.338l0.487,0.708c-6.895,4.745-14.046,5.476-17.795,5.476c-1.641,0-2.63-0.14-2.662-0.145l0.127-0.85
								C2391.008,1811.54,2401.128,1812.96,2410.751,1806.338z"/>
						</g>
					</g>
				</g>
			</g>
			<g>
				<g>
					<g>
						<g>
							
								<rect x="2421.208" y="1826.519" transform="matrix(0.8291 -0.5591 0.5591 0.8291 -607.0907 1667.6096)" width="6.605" height="0.86"/>
						</g>
					</g>
				</g>
			</g>
			<g>
				<g>
					<g>
						<g>
							
								<rect x="2417.281" y="1825.475" transform="matrix(0.8291 -0.5591 0.5591 0.8291 -607.1841 1665.3514)" width="6.604" height="0.859"/>
						</g>
					</g>
				</g>
			</g>
			<g>
				<g>
					<g>
						<g>
							<g>
								<g>
									<g>
										<g>
											<g>
												<g>
													<path d="M2316.204,1832.568h116.09c1.826,0,3.311,1.486,3.311,3.311v5.73h-0.86v-5.73c0-1.352-1.099-2.452-2.451-2.452
														h-116.09c-2.932,0-5.317,2.385-5.317,5.317c0,1.564,0.684,3.042,1.878,4.055l-0.556,0.655
														c-1.386-1.176-2.182-2.892-2.182-4.71C2310.027,1835.339,2312.798,1832.568,2316.204,1832.568z"/>
												</g>
											</g>
										</g>
									</g>
								</g>
							</g>
						</g>
					</g>
				</g>
			</g>
			<g>
				<g>
					<g>
						<g>
							<path d="M2327.038,1824.049c8.623-3.677,46.552-20.5,46.934-20.67l0.349,0.786c-0.383,0.169-38.318,16.994-46.946,20.674
								c-8.444,3.601-10.761,8.294-10.783,8.341l-0.778-0.367C2315.91,1832.611,2318.263,1827.792,2327.038,1824.049z"/>
						</g>
					</g>
				</g>
			</g>
			<g>
				<g>
					<path style="fill:#4CB7D8;" d="M2516.315,1833.129l7.75-2.231l29.815-31.787l25.842,15.768l48.524-13.967
						c1.211-0.349,2.476,0.35,2.824,1.562l2.116,7.35c0.239,0.829-0.24,1.695-1.069,1.933l-112.828,32.476
						c-3.408,0.981-6.983-1.332-7.322-5.056C2511.716,1836.408,2513.645,1833.897,2516.315,1833.129z"/>
				</g>
			</g>
			<g>
				<g>
					<path style="fill:#33192C;" d="M2527.781,1819.246l35.938-30.133c21.241,11.381,36.218-7.387,36.218-7.387
						c10.827-9.196,22.165-0.548,22.165-0.548l5.733,19.919l-111.579,32.116C2517.572,1826.273,2527.781,1819.246,2527.781,1819.246
						z"/>
				</g>
			</g>
			<g>
				<g>
					<g>
						<g>
							
								<rect x="2624.525" y="1780.775" transform="matrix(0.9609 -0.2768 0.2768 0.9609 -393.2365 796.6513)" width="0.86" height="20.625"/>
						</g>
					</g>
				</g>
			</g>
			<g>
				<g>
					<g>
						<g>
							<path d="M2599.606,1781.453l0.664,0.546c-5.313,6.466-11.983,9.147-15.586,10.184c-1.577,0.454-2.566,0.593-2.598,0.597
								l-0.113-0.851C2582.072,1791.913,2592.19,1790.478,2599.606,1781.453z"/>
						</g>
					</g>
				</g>
			</g>
			<g>
				<g>
					<g>
						<g>
							
								<rect x="2615.227" y="1797.024" transform="matrix(0.6421 -0.7666 0.7666 0.6421 -440.8446 2650.5481)" width="6.605" height="0.86"/>
						</g>
					</g>
				</g>
			</g>
			<g>
				<g>
					<g>
						<g>
							
								<rect x="2611.164" y="1797.108" transform="matrix(0.6421 -0.7666 0.7666 0.6421 -442.3094 2647.6521)" width="6.604" height="0.859"/>
						</g>
					</g>
				</g>
			</g>
			<g>
				<g>
					<g>
						<g>
							<g>
								<g>
									<g>
										<g>
											<g>
												<g>
													<path d="M2516.002,1832.812l111.561-32.111c1.755-0.505,3.593,0.512,4.098,2.266l1.585,5.506l-0.826,0.238
														l-1.585-5.506c-0.374-1.299-1.735-2.052-3.034-1.678l-111.561,32.111c-2.817,0.811-4.45,3.762-3.638,6.58
														c0.432,1.503,1.499,2.734,2.926,3.378l-0.353,0.783c-1.658-0.746-2.896-2.176-3.399-3.923
														C2510.833,1837.183,2512.73,1833.754,2516.002,1832.812z"/>
												</g>
											</g>
										</g>
									</g>
								</g>
							</g>
						</g>
					</g>
				</g>
			</g>
			<g>
				<g>
					<g>
						<g>
							<path d="M2524.058,1821.629c7.27-5.919,39.065-32.576,39.386-32.845l0.553,0.659c-0.321,0.269-32.122,26.93-39.396,32.853
								c-7.118,5.796-8.047,10.947-8.055,10.998l-0.849-0.137C2515.733,1832.934,2516.66,1827.652,2524.058,1821.629z"/>
						</g>
					</g>
				</g>
			</g>
		</g>
		<g>
			<path style="fill:#4693AA;" d="M2277.14,1060.65l122.645-87.463l41.835,120.659c0,0-134.243,72.925-173.04,65.622
				c-38.796-7.303-170.691-106.897-170.691-106.897c13.567-36.502,41.878-62.416,41.878-62.416L2277.14,1060.65z"/>
		</g>
		<g>
			<path style="fill:#52B6C6;" d="M2424.279,964.207c34.894-2.697,88.4-4.874,111.203,4.476
				c35.221,14.442,154.55,163,159.583,189.613c5.033,26.613,10.723,168.284,10.723,168.284s-14.467,11.025-76.731,4.525
				c0,0-20.791-126.66-28.461-139.263c-7.67-12.603-33.572-58.766-33.572-58.766l-8.156,199.56c0,0-114.053,20.181-217.666-28.113
				l43.223-153.909c0,0-8.883-108.844-3.202-150.473C2384.01,979.726,2403.737,965.795,2424.279,964.207z"/>
		</g>
		<g>
			<path d="M2139.669,989.322l138.143,70.891l1.248,22.755c0.021,0.383-0.272,0.71-0.656,0.732
				c-0.382,0.019-0.711-0.272-0.732-0.656l-1.205-21.958l-136.595-70.097c-3.331,2.986-29.539,27.273-41.326,61.806
				c-0.113,0.331-0.451,0.522-0.786,0.459c-0.032-0.006-0.064-0.015-0.096-0.025c-0.364-0.124-0.557-0.519-0.434-0.882
				c12.662-37.096,41.791-62.467,42.083-62.719L2139.669,989.322z"/>
		</g>
		<g>
			<path d="M2361.586,999.574c0.312-0.223,0.746-0.149,0.969,0.162c0.223,0.313,0.15,0.746-0.162,0.97l-84.849,60.51
				c-0.16,0.115-0.353,0.151-0.532,0.117c-0.17-0.032-0.329-0.127-0.437-0.279c-0.223-0.313-0.15-0.746,0.162-0.969
				L2361.586,999.574z"/>
		</g>
		<g>
			<path d="M2546.012,1095.364l55.187,96.132l0.067,0.161c0.233,0.841,23.268,84.462,28.43,138.819
				c5.877,0.621,56.099,5.566,75.776-4.514c0.342-0.175,0.761-0.04,0.935,0.302c0.175,0.341,0.04,0.76-0.302,0.935
				c-21.184,10.852-74.853,4.857-77.127,4.597l-0.561-0.064l-0.052-0.562c-4.973-53.456-27.559-135.945-28.416-139.058
				l-55.143-96.055c-0.191-0.333-0.076-0.758,0.257-0.949C2545.397,1094.916,2545.822,1095.031,2546.012,1095.364z"/>
		</g>
		<g>
			<path d="M2567.053,1132.381c0.381,0.014,0.682,0.339,0.666,0.723l-4.595,112.427c-0.015,0.384-0.339,0.682-0.723,0.666
				c-0.034-0.002-0.068-0.005-0.101-0.011c-0.333-0.063-0.579-0.362-0.564-0.711l4.595-112.427
				C2566.346,1132.663,2566.669,1132.365,2567.053,1132.381z"/>
		</g>
		<g>
			<path d="M2543.362,972.292c0.45,0.334,45.913,34.596,122.151,135.518c0.231,0.306,0.17,0.742-0.135,0.974
				c-0.163,0.123-0.362,0.163-0.548,0.128c-0.164-0.031-0.317-0.12-0.426-0.264c-76.093-100.732-121.421-134.907-121.87-135.241
				c-0.309-0.229-0.373-0.664-0.144-0.972C2542.618,972.128,2543.053,972.063,2543.362,972.292z"/>
		</g>
		<g>
			<path style="fill:#FCAF90;" d="M2466.043,988.506c-29.305-2.064-38.856-24.178-38.856-24.178s37.823-6.181,85.746-0.722
				C2512.934,963.606,2495.348,990.57,2466.043,988.506z"/>
		</g>
	</g>
</g>
</svg>
